HIERARCHY
ROOT root
{
	OFFSET	0	13.1	24.9
	CHANNELS 6  Xposition Yposition Zposition Xrotation Yrotation Zrotation
	JOINT spine_1
	{
		OFFSET	0	9.99999	0
		CHANNELS 3  Xrotation Yrotation Zrotation
		JOINT spine_2
		{
			OFFSET	0	112	-10
			CHANNELS 3  Xrotation Yrotation Zrotation
			JOINT spine_3
			{
				OFFSET	0	206.5	19.3
				CHANNELS 3  Xrotation Yrotation Zrotation
				JOINT spine_4
				{
					OFFSET	0	110.4	14.6
					CHANNELS 3  Xrotation Yrotation Zrotation
					JOINT neck_1
					{
						OFFSET	0	71.8	-50.3
						CHANNELS 3  Xrotation Yrotation Zrotation
						JOINT neck_2
						{
							OFFSET	0	86.2	-25.8
							CHANNELS 3  Xrotation Yrotation Zrotation
							JOINT head_ee
							{
								OFFSET	0	179.8	-8.7
								CHANNELS 3  Xrotation Yrotation Zrotation
								End Site
								{
									OFFSET	1	0	0
								}
							}
						}
					}
					JOINT left_clavicle
					{
						OFFSET	-43.2	22.4	-70.8
						CHANNELS 3  Xrotation Yrotation Zrotation
						JOINT left_shoulder
						{
							OFFSET	-93.9	-5.79999	48.7
							CHANNELS 3  Xrotation Yrotation Zrotation
							JOINT left_elbow
							{
								OFFSET	-291.4	-30.8	15.2
								CHANNELS 3  Xrotation Yrotation Zrotation
								JOINT left_lowarm_twist
								{
									OFFSET	-110.7	-3.89999	13.6
									CHANNELS 3  Xrotation Yrotation Zrotation
									JOINT left_hand
									{
										OFFSET	-110.7	-3.89999	13.6
										CHANNELS 3  Xrotation Yrotation Zrotation
										JOINT left_ee
										{
											OFFSET	-80.8	-5.10001	12.1
											CHANNELS 3  Xrotation Yrotation Zrotation
											End Site
											{
												OFFSET	1	0	0
											}
										}
									}
								}
							}
						}
					}
					JOINT right_clavicle
					{
						OFFSET	43.2	22.4	-70.8
						CHANNELS 3  Xrotation Yrotation Zrotation
						JOINT right_shoulder
						{
							OFFSET	93.9	-5.79999	48.7
							CHANNELS 3  Xrotation Yrotation Zrotation
							JOINT right_elbow
							{
								OFFSET	291.4	-30.8	15.2
								CHANNELS 3  Xrotation Yrotation Zrotation
								JOINT right_lowarm_twist
								{
									OFFSET	110.7	-3.89999	13.6
									CHANNELS 3  Xrotation Yrotation Zrotation
									JOINT right_hand
									{
										OFFSET	110.7	-3.89999	13.6
										CHANNELS 3  Xrotation Yrotation Zrotation
										JOINT right_ee
										{
											OFFSET	80.8	-5.10001	12.1
											CHANNELS 3  Xrotation Yrotation Zrotation
											End Site
											{
												OFFSET	1	0	0
											}
										}
									}
								}
							}
						}
					}
				}
			}
		}
	}
	JOINT left_hip
	{
		OFFSET	-82.8	-127.5	0.300001
		CHANNELS 3  Xrotation Yrotation Zrotation
		JOINT left_knee
		{
			OFFSET	-28.2	-396.7	2.2
			CHANNELS 3  Xrotation Yrotation Zrotation
			JOINT left_ankle
			{
				OFFSET	-11.7	-411.3	35.4
				CHANNELS 3  Xrotation Yrotation Zrotation
				JOINT left_toes
				{
					OFFSET	0	-60	-88.6
					CHANNELS 3  Xrotation Yrotation Zrotation
					JOINT left_foot_ee
					{
						OFFSET	-22.5	-16.5	-42.2
						CHANNELS 3  Xrotation Yrotation Zrotation
						End Site
						{
							OFFSET	1	0	0
						}
					}
				}
			}
		}
	}
	JOINT right_hip
	{
		OFFSET	82.8	-127.5	0.300001
		CHANNELS 3  Xrotation Yrotation Zrotation
		JOINT right_knee
		{
			OFFSET	28.2	-396.7	2.2
			CHANNELS 3  Xrotation Yrotation Zrotation
			JOINT right_ankle
			{
				OFFSET	11.7	-411.3	35.4
				CHANNELS 3  Xrotation Yrotation Zrotation
				JOINT right_toes
				{
					OFFSET	0	-60	-88.6
					CHANNELS 3  Xrotation Yrotation Zrotation
					JOINT right_foot_ee
					{
						OFFSET	22.5	-16.5	-42.2
						CHANNELS 3  Xrotation Yrotation Zrotation
						End Site
						{
							OFFSET	1	0	0
						}
					}
				}
			}
		}
	}
}
MOTION
Frames: 5
Frame Time: 0.02
1372.05 701.618 -1475.22 -18.9490859299 40.0551657573 5.79954106953 4.00671 0.124682 1.80341 4.00852 0.00969215 1.80769 4.00776 -0.245968 1.79091 4.00329 0.0399119 1.80728 7.94027 5.28622 -2.27228 8.16067 10.8788 -2.59625 -0.0 0.0 -0.0 3.71378 16.6139 7.76036 -5.24945 -27.7007 62.2846 1.77133 -41.262 0.666937 35.5674 -0.139005 -4.46926 -2.27875 17.7548 -6.62068 -0.0 0.0 -0.0 3.85161 -12.4498 -7.90164 -20.8496 42.9331 -69.4286 0.267009 7.53485 -0.0175822 71.1651 2.86215 8.03548 -4.67354 -20.5986 19.7754 0.0 0.0 0.0 10.7235 -6.44225 12.1252 -28.4044 0.101867 4.31339 3.63838 10.9617 -0.528082 -33.2941 0.0 0.0 -0.0 0.0 -0.0 40.2414 47.2155 -0.478843 -19.7335 -0.298715 -2.99858 -0.342021 -23.7893 -0.0519483 33.8683 -0.0 -0.0 0.0 0.0 0.0 
1358.17417212 705.827 -1501.50576696 -17.5442653893 41.9597818482 5.00082098382 3.76104 0.272176 2.17642 3.76366 0.133167 2.18932 3.7674 -0.186818 2.1854 3.76077 0.160585 2.18748 5.49213 2.43288 -4.72114 5.68245 8.30008 -5.33598 -0.0 0.0 -0.0 3.57007 17.6178 7.55339 -6.74472 -27.5932 61.7088 1.67265 -39.6412 0.602907 33.4118 -0.0516407 -4.20795 -2.81942 23.4736 -6.84297 -0.0 0.0 -0.0 3.0499 -10.7493 -6.481 -17.9054 42.2418 -74.7458 0.344736 9.69124 -0.0292248 70.5354 2.79611 7.98892 -4.51445 -20.5033 18.8322 0.0 0.0 0.0 11.7081 -10.1801 12.8104 -31.2646 -0.00644503 4.73893 -12.7593 13.4539 1.91505 -32.3979 0.0 0.0 -0.0 0.0 -0.0 35.9767 47.5652 0.134638 -18.3238 -0.311821 -2.78269 1.17537 -25.8706 0.17984 35.0467 -0.0 -0.0 0.0 0.0 0.0 
1358.38347162 705.827 -1501.61519172 -17.4222207006 41.5255468339 4.81751324161 3.76104 0.272176 2.17642 3.76366 0.133167 2.18932 3.7674 -0.186818 2.1854 3.76077 0.160585 2.18748 5.49213 2.43288 -4.72114 5.68245 8.30008 -5.33598 -0.0 0.0 -0.0 3.57007 17.6178 7.55339 -6.74472 -27.5932 61.7088 1.67265 -39.6412 0.602907 33.4118 -0.0516407 -4.20795 -2.81942 23.4736 -6.84297 -0.0 0.0 -0.0 3.0499 -10.7493 -6.481 -17.9054 42.2418 -74.7458 0.344736 9.69124 -0.0292248 70.5354 2.79611 7.98892 -4.51445 -20.5033 18.8322 0.0 0.0 0.0 11.7081 -10.1801 12.8104 -31.2646 -0.00644503 4.73893 -12.7593 13.4539 1.91505 -32.3979 0.0 0.0 -0.0 0.0 -0.0 35.9767 47.5652 0.134638 -18.3238 -0.311821 -2.78269 1.17537 -25.8706 0.17984 35.0467 -0.0 -0.0 0.0 0.0 0.0 
1358.60862697 705.827 -1501.73055705 -17.2944310116 41.0600823524 4.62386704676 3.76104 0.272176 2.17642 3.76366 0.133167 2.18932 3.7674 -0.186818 2.1854 3.76077 0.160585 2.18748 5.49213 2.43288 -4.72114 5.68245 8.30008 -5.33598 -0.0 0.0 -0.0 3.57007 17.6178 7.55339 -6.74472 -27.5932 61.7088 1.67265 -39.6412 0.602907 33.4118 -0.0516407 -4.20795 -2.81942 23.4736 -6.84297 -0.0 0.0 -0.0 3.0499 -10.7493 -6.481 -17.9054 42.2418 -74.7458 0.344736 9.69124 -0.0292248 70.5354 2.79611 7.98892 -4.51445 -20.5033 18.8322 0.0 0.0 0.0 11.7081 -10.1801 12.8104 -31.2646 -0.00644503 4.73893 -12.7593 13.4539 1.91505 -32.3979 0.0 0.0 -0.0 0.0 -0.0 35.9767 47.5652 0.134638 -18.3238 -0.311821 -2.78269 1.17537 -25.8706 0.17984 35.0467 -0.0 -0.0 0.0 0.0 0.0 
1358.86127788 705.827 -1501.85714986 -17.1551929339 40.5397773804 4.41077803945 3.76104 0.272176 2.17642 3.76366 0.133167 2.18932 3.7674 -0.186818 2.1854 3.76077 0.160585 2.18748 5.49213 2.43288 -4.72114 5.68245 8.30008 -5.33598 -0.0 0.0 -0.0 3.57007 17.6178 7.55339 -6.74472 -27.5932 61.7088 1.67265 -39.6412 0.602907 33.4118 -0.0516407 -4.20795 -2.81942 23.4736 -6.84297 -0.0 0.0 -0.0 3.0499 -10.7493 -6.481 -17.9054 42.2418 -74.7458 0.344736 9.69124 -0.0292248 70.5354 2.79611 7.98892 -4.51445 -20.5033 18.8322 0.0 0.0 0.0 11.7081 -10.1801 12.8104 -31.2646 -0.00644503 4.73893 -12.7593 13.4539 1.91505 -32.3979 0.0 0.0 -0.0 0.0 -0.0 35.9767 47.5652 0.134638 -18.3238 -0.311821 -2.78269 1.17537 -25.8706 0.17984 35.0467 -0.0 -0.0 0.0 0.0 0.0 
